/* XPM */
static char *collectible_3[] = {
/* columns rows colors chars-per-pixel */
"32 32 3 1 ",
"  c #000000",
". c #FFFFFF",
"X c #FFFF00",
/* pixels */
"################################",
"#..............................#",
"#..............................#",
"#............XXXX..............#",
"#...........XXXXXX.............#",
"#..........XXXXXXXX............#",
"#.........XXXXXXXXXX...........#",
"#........XXXXXXXXXXXX..........#",
"#.......XXXXXXXXXXXXXX.........#",
"#......XXXXXXXXXXXXXXXX........#",
"#.....XXXXXXXXXXXXXXXXXX.......#",
"#....XXXXXXXXXXXXXXXXXXXX......#",
"#...XXXXXXXXXXXXXXXXXXXXXX.....#",
"#...XXXXXXXXXXXXXXXXXXXXXX.....#",
"#..XXXXXXXXXXXXXXXXXXXXXXXX....#",
"#..XXXXXXXXXXXXXXXXXXXXXXXX....#",
"#..XXXXXXXXXXXXXXXXXXXXXXXX....#",
"#..XXXXXXXXXXXXXXXXXXXXXXXX....#",
"#..XXXXXXXXXXXXXXXXXXXXXXXX....#",
"#..XXXXXXXXXXXXXXXXXXXXXXXX....#",
"#...XXXXXXXXXXXXXXXXXXXXXX.....#",
"#...XXXXXXXXXXXXXXXXXXXXXX.....#",
"#....XXXXXXXXXXXXXXXXXXXX......#",
"#.....XXXXXXXXXXXXXXXXXX.......#",
"#......XXXXXXXXXXXXXXXX........#",
"#.......XXXXXXXXXXXXXX.........#",
"#........XXXXXXXXXXXX..........#",
"#.........XXXXXXXXXX...........#",
"#..........XXXXXXXX............#",
"#...........XXXXXX.............#",
"#............XXXX..............#",
"################################"
};