/* XPM */
static char *exit[] = {
/* columns rows colors chars-per-pixel */
"32 32 3 1 ",
"  c #000000",
". c #FFFFFF",
"X c #FF0000",
/* pixels */
"################################",
"#..............................#",
"#..............................#",
"#.........XXXXXX...XXXXXX......#",
"#........XX....XX.XX....XX.....#",
"#.......XX......XXX......XX....#",
"#.......XX......XXX......XX....#",
"#.......XX...XXXXXXXXX...XX....#",
"#.......XX....XXXXXXX....XX....#",
"#.......XX.....XXXXX.....XX....#",
"#.......XX......XXX......XX....#",
"#.......XX.......X.......XX....#",
"#........XX.....XXX.....XX.....#",
"#.........XXXXXX...XXXXXX......#",
"#..............................#",
"#..............................#",
"#..............................#",
"#..............................#",
"#..............................#",
"#..............................#",
"#..............................#",
"#..............................#",
"#..............................#",
"#..............................#",
"#..............................#",
"#..............................#",
"#..............................#",
"#..............................#",
"#..............................#",
"#..............................#",
"#..............................#",
"################################"
};