/* XPM */
static char *player_front[] = {
/* columns rows colors chars-per-pixel */
"32 32 3 1 ",
"  c #000000",
". c #FFFFFF",
"X c #0000FF",
/* pixels */
"################################",
"#..............................#",
"#..............................#",
"#...........XXXXXX.............#",
"#..........XXXXXXXX............#",
"#.........XXX....XXX...........#",
"#........XXX......XXX..........#",
"#........XX........XX..........#",
"#........XX...XX...XX..........#",
"#........XX...XX...XX..........#",
"#........XXX......XXX..........#",
"#.........XXXXXXXXXX...........#",
"#..........XXXXXXXX............#",
"#...........XXXXXX.............#",
"#............XXXX..............#",
"#...........XXXXXX.............#",
"#..........XXXXXXXX............#",
"#.........XXXXXXXXXX...........#",
"#........XXX......XXX..........#",
"#.......XXX........XXX.........#",
"#......XXX..........XXX........#",
"#......XX............XX........#",
"#......XX............XX........#",
"#......XX............XX........#",
"#......XXX..........XXX........#",
"#.......XXX........XXX.........#",
"#........XXX......XXX..........#",
"#.........XXXXXXXXXX...........#",
"#..........XXXXXXXX............#",
"#...........XXXXXX.............#",
"#..............................#",
"################################"
};