/* XPM */
static char *player_right[] = {
/* columns rows colors chars-per-pixel */
"32 32 3 1 ",
"  c #000000",
". c #FFFFFF",
"X c #0000FF",
/* pixels */
"################################",
"#..............................#",
"#..............................#",
"#...........XXXXX..............#",
"#..........XXXXXXX.............#",
"#.........XXXXXXXXX............#",
"#........XXXXXXXXXXX...........#",
"#.......XXXXXXXXXXXX...........#",
"#......XXXXXXXXXXXXX...........#",
"#......XXXXXXXXXXXXXX..........#",
"#......XXXXXXXXXXXXXX..........#",
"#.......XXXXXXXXXXXXX..........#",
"#........XXXXXXXXXXX...........#",
"#.........XXXXXXXXX............#",
"#..........XXXXXXX.............#",
"#...........XXXXX..............#",
"#............XXX...............#",
"#...........XXXXX..............#",
"#..........XXXXXXX.............#",
"#.........XXXXXXXXX............#",
"#........XXXXXXXXXXX...........#",
"#.......XXXXXXXXXXXXX..........#",
"#......XXXXXXXXXXXXXXX.........#",
"#.....XXXXXXXXXXXXXXXXX........#",
"#.....XXXXXXXXXXXXXXXXX........#",
"#......XXXXXXXXXXXXXXX.........#",
"#.......XXXXXXXXXXXXX..........#",
"#........XXXXXXXXXXX...........#",
"#.........XXXXXXXXX............#",
"#..........XXXXXXX.............#",
"#..............................#",
"################################"
};