/* XPM */
static char *wall[] = {
/* columns rows colors chars-per-pixel */
"32 32 2 1 ",
"  c #000000",
". c #FFFFFF",
/* pixels */
"################################",
"#..............................#",
"#..............................#",
"#..............................#",
"#..............................#",
"#..............................#",
"#..............................#",
"#..............................#",
"#..............................#",
"#..............................#",
"#..............................#",
"#..............................#",
"#..............................#",
"#..............................#",
"#..............................#",
"#..............................#",
"#..............................#",
"#..............................#",
"#..............................#",
"#..............................#",
"#..............................#",
"#..............................#",
"#..............................#",
"#..............................#",
"#..............................#",
"#..............................#",
"#..............................#",
"#..............................#",
"#..............................#",
"#..............................#",
"#..............................#",
"################################"
};